<?xml version="1.0" encoding="iso-8859-1"?>
<!-- Uploaded to: SVG Repo, www.svgrepo.com, Generator: SVG Repo Mixer Tools -->
<svg version="1.1" id="Layer_1" xmlns="http://www.w3.org/2000/svg" xmlns:xlink="http://www.w3.org/1999/xlink" 
	 viewBox="0 0 512 512" xml:space="preserve">
<circle style="fill:#005E8B;" cx="256" cy="256" r="256"/>
<path style="fill:#00447D;" d="M507.108,305.988L357.135,156.015L176.7,274.963l-81.886,49.993l185.856,185.856
	C393.788,499.995,485.414,415.572,507.108,305.988z"/>
<path style="fill:#FFD15D;" d="M398.222,256c0-78.546-63.676-142.222-142.222-142.222S113.778,177.454,113.778,256v56.889h284.444
	V256z"/>
<g>
	<path style="fill:#F9B54C;" d="M398.222,256c0-78.546-63.676-142.222-142.222-142.222c-0.193,0-0.381,0.014-0.574,0.014v199.097
		h142.796V256z"/>
	<rect x="227.556" y="113.778" style="fill:#F9B54C;" width="56.889" height="142.222"/>
</g>
<rect x="255.431" y="113.778" style="fill:#F4A200;" width="29.018" height="142.222"/>
<rect x="341.333" y="256" style="fill:#BC732A;" width="56.889" height="28.444"/>
<rect x="113.778" y="256" style="fill:#EDA548;" width="56.889" height="28.444"/>
<rect x="94.815" y="278.411" style="fill:#F9B54C;" width="322.37" height="46.545"/>
<rect x="255.431" y="278.411" style="fill:#F4A200;" width="161.754" height="46.545"/>
</svg>