<?xml version="1.0" encoding="iso-8859-1"?>
<!-- Uploaded to: SVG Repo, www.svgrepo.com, Generator: SVG Repo Mixer Tools -->
<svg version="1.1" id="Layer_1" xmlns="http://www.w3.org/2000/svg" xmlns:xlink="http://www.w3.org/1999/xlink" 
	 viewBox="0 0 512 512" xml:space="preserve">
<circle style="fill:#062964;" cx="256" cy="256" r="256"/>
<path style="fill:#070C49;" d="M512,256c0-6.954-0.288-13.841-0.831-20.656l-84.502-84.502L143.881,253.109L85.333,264.62
	l53.393,53.393l-24.948,51.765L256,512l0,0C397.384,512,512,397.384,512,256z"/>
<rect x="113.778" y="256" style="fill:#B8C9D9;" width="28.444" height="113.778"/>
<rect x="369.778" y="256" style="fill:#99ACBC;" width="28.444" height="113.778"/>
<rect x="85.333" y="150.842" style="fill:#E6F3FF;" width="341.333" height="113.778"/>
<rect x="255.862" y="150.842" style="fill:#CFDBE6;" width="170.805" height="113.778"/>
<g>
	<polygon style="fill:#F9B54C;" points="88.695,264.62 145.584,264.62 193.164,150.842 136.275,150.842 	"/>
	<polygon style="fill:#F9B54C;" points="203.766,264.62 260.655,264.62 308.234,150.842 251.345,150.842 	"/>
</g>
<g>
	<polygon style="fill:#F4A200;" points="308.234,150.842 255.857,150.842 255.857,264.62 260.655,264.62 	"/>
	<polygon style="fill:#F4A200;" points="316.25,264.62 373.139,264.62 420.719,150.842 363.83,150.842 	"/>
</g>
</svg>