<?xml version="1.0" encoding="iso-8859-1"?>
<!-- Uploaded to: SVG Repo, www.svgrepo.com, Generator: SVG Repo Mixer Tools -->
<svg height="800px" width="800px" version="1.1" id="Layer_1" xmlns="http://www.w3.org/2000/svg" xmlns:xlink="http://www.w3.org/1999/xlink" 
	 viewBox="0 0 512 512" xml:space="preserve">
<circle style="fill:#FF0647;" cx="256" cy="256" r="256"/>
<path style="fill:#C10E45;" d="M512,256c0-11.323-0.743-22.471-2.169-33.406L399.619,112.381L241.59,271.8L121.366,390.634
	l121.004,121.004c4.513,0.236,9.056,0.362,13.627,0.362C397.384,512,512,397.384,512,256z"/>
<path style="fill:#FFFFFF;" d="M121.366,390.634L121.366,390.634c0,0-26.35-69.072,0-95.423l52.308-52.308l95.423,95.423
	l-52.308,52.309C190.44,416.983,121.366,390.634,121.366,390.634z"/>
<path style="fill:#E6F3FF;" d="M121.368,390.634c0.022,0.009,69.077,26.345,95.422,0l52.308-52.309l-47.711-47.711L121.368,390.634z
	"/>
<path style="fill:#062964;" d="M182.45,329.55L182.45,329.55c-3.634-3.634-3.634-9.528,0-13.162l204.007-204.007
	c3.634-3.634,9.528-3.634,13.162,0l0,0c3.634,3.634,3.634,9.528,0,13.162L195.612,329.55
	C191.978,333.184,186.085,333.184,182.45,329.55z"/>
<path style="fill:#070C49;" d="M182.45,329.55c3.634,3.634,9.526,3.634,13.162,0l204.007-204.007c3.634-3.634,3.634-9.528,0-13.162
	L182.45,329.55z"/>
</svg>