<?xml version="1.0" encoding="iso-8859-1"?>
<!-- Uploaded to: SVG Repo, www.svgrepo.com, Generator: SVG Repo Mixer Tools -->
<svg height="800px" width="800px" version="1.1" id="Layer_1" xmlns="http://www.w3.org/2000/svg" xmlns:xlink="http://www.w3.org/1999/xlink" 
	 viewBox="0 0 512 512" xml:space="preserve">
<circle style="fill:#BDFBFD;" cx="256" cy="256" r="256"/>
<path style="fill:#00E4ED;" d="M509.895,288.947L367.48,146.532l-215.631-13.54l35.483,34.226l-40.283,9.573l24.405,24.405
	l10.633,114.026l79.372,81.275L99.556,426.667l70.547,70.547C196.954,506.777,225.866,512,256,512
	C386.22,512,493.728,414.77,509.895,288.947z"/>
<circle style="fill:#FFFFFF;" cx="266.809" cy="230.969" r="119.467"/>
<path style="fill:#E6F3FF;" d="M172.803,304.645c21.871,27.867,55.834,45.79,94.006,45.79c65.979,0,119.467-53.488,119.467-119.467
	c0-28.984-10.326-55.551-27.495-76.238L172.803,304.645z"/>
<circle style="fill:#324A5E;" cx="266.809" cy="230.969" r="59.733"/>
<path style="fill:#2B3B4E;" d="M219.3,267.164c10.914,14.303,28.129,23.538,47.509,23.538c32.99,0,59.733-26.743,59.733-59.733
	c0-14.786-5.384-28.307-14.283-38.738L219.3,267.164z"/>
<path style="fill:#FF764C;" d="M266.809,99.556c-53.262,0-99.121,31.685-119.76,77.236l119.76,54.177l25.302,128.96
	c23.378-4.563,44.544-15.31,61.707-30.487c27.229-24.078,44.404-59.266,44.404-98.473
	C398.222,158.391,339.387,99.556,266.809,99.556z"/>
<path style="fill:#FF450C;" d="M368.087,147.23L265.14,230.214l1.67,0.755l25.302,128.96c23.378-4.563,44.544-15.31,61.707-30.487
	c27.227-24.078,44.403-59.266,44.403-98.473C398.222,199.146,386.908,169.968,368.087,147.23z"/>
<circle style="fill:#FFBF1A;" cx="266.809" cy="230.969" r="23.893"/>
<path style="fill:#F9B54C;" d="M247.234,244.646c4.32,6.172,11.469,10.216,19.575,10.216c13.197,0,23.893-10.697,23.893-23.893
	c0-6.268-2.432-11.955-6.382-16.217L247.234,244.646z"/>
<path style="fill:#FF450C;" d="M213.237,151.8L213.237,151.8c-3.02,5.866-10.224,8.173-16.089,5.153L154.66,135.08
	c-5.866-3.02-8.173-10.224-5.153-16.089l0,0c3.02-5.866,10.224-8.173,16.089-5.153l42.487,21.873
	C213.95,138.731,216.257,145.936,213.237,151.8z"/>
<path style="fill:#7A94A5;" d="M338.489,374.329v-59.733c0-6.597-5.349-11.947-11.947-11.947s-11.947,5.349-11.947,11.947v59.733
	H99.556v52.338h262.827v-52.338L338.489,374.329L338.489,374.329z"/>
</svg>