<?xml version="1.0" encoding="iso-8859-1"?>
<!-- Uploaded to: SVG Repo, www.svgrepo.com, Generator: SVG Repo Mixer Tools -->
<svg version="1.1" id="Layer_1" xmlns="http://www.w3.org/2000/svg" xmlns:xlink="http://www.w3.org/1999/xlink" 
	 viewBox="0 0 512.002 512.002" xml:space="preserve">
<circle style="fill:#FF764C;" cx="256.001" cy="256" r="256"/>
<path style="fill:#FF450C;" d="M512.001,256c0-24.048-3.324-47.318-9.523-69.385L325.386,9.523l0,0L185.135,119.429l24.654,24.654
	l-43.423,126.647l102.717,102.717l-94.174,87.638l49.007,48.919c10.512,1.314,21.22,1.998,32.087,1.998
	C397.385,512,512.001,397.384,512.001,256z"/>
<path style="fill:#F2C664;" d="M169.968,232.079v-77.583c0-13.46,10.912-24.373,24.373-24.373h9.612V79.146H305.91v67.972v101.957
	H169.968V232.079z"/>
<polygon style="fill:#D3AA57;" points="256.001,79.143 256.001,249.072 305.91,249.072 305.91,147.115 305.91,79.143 "/>
<g>
	<path style="fill:#005E8B;" d="M170.668,289.411v77.576h17.239v-77.576c0-37.354,30.237-67.768,67.52-68.08v-17.239
		C208.638,204.405,170.668,242.552,170.668,289.411z"/>
	<path style="fill:#005E8B;" d="M256.001,204.078c-0.193,0-0.381,0.014-0.574,0.014v17.239c0.191-0.002,0.381-0.014,0.574-0.014
		c37.547,0,68.094,30.548,68.094,68.094v106.02h17.239v-106.02C341.334,242.359,303.053,204.078,256.001,204.078z"/>
</g>
<g>
	<path style="fill:#062964;" d="M256.001,204.078v17.239c37.547,0,68.094,30.548,68.094,68.094v106.02h17.239v-106.02
		C341.334,242.359,303.055,204.079,256.001,204.078z"/>
	<path style="fill:#062964;" d="M341.334,452.32c0,15.71-38.205,28.444-85.333,28.444s-85.333-12.734-85.333-28.444V310.098h170.667
		V452.32z"/>
</g>
<path style="fill:#070C49;" d="M256.001,310.098v170.667c47.128,0,85.333-12.734,85.333-28.444V310.098L256.001,310.098
	L256.001,310.098z"/>
<g>
	<ellipse style="fill:#00447D;" cx="256.001" cy="310.096" rx="85.333" ry="28.444"/>
	<path style="fill:#00447D;" d="M341.334,310.098c0-15.71-38.205-28.444-85.333-28.444v56.889
		C303.129,338.542,341.334,325.808,341.334,310.098z"/>
</g>
<ellipse style="fill:#BDFBFD;" cx="256.001" cy="310.096" rx="75.852" ry="23.847"/>
<path style="fill:#E2BF79;" d="M312.436,251.278c-3.5-9.838-6.527-26.159-6.527-53.184h-5.322
	c-15.831,0-28.665-12.833-28.665-28.665v-39.307h43.768c13.367,0,24.202,10.835,24.202,24.202v111.74h-6.559
	C323.937,266.064,315.586,260.132,312.436,251.278z"/>
<path style="fill:#FFDC86;" d="M339.895,266.064c0,0-16.649,1.545-16.993-16.993v-16.993h16.993V266.064z"/>
<path style="fill:#E8C172;" d="M284.883,209.405h8.068c7.158,0,12.959,5.803,12.959,12.959v42.053
	c0,7.158-5.803,12.959-12.959,12.959h-8.068c-7.158,0-12.959-5.803-12.959-12.959v-42.053
	C271.923,215.205,277.726,209.405,284.883,209.405z"/>
<path style="fill:#FFDC86;" d="M303.334,238.24v-14.751c0-6.073-4.923-10.995-10.995-10.995h-6.846
	c-6.073,0-10.995,4.923-10.995,10.995v14.751H303.334z"/>
<path style="fill:#FCD37A;" d="M248.836,198.092h8.068c7.158,0,12.959,5.803,12.959,12.959v59.046
	c0,7.158-5.803,12.959-12.959,12.959h-8.068c-7.158,0-12.959-5.803-12.959-12.959v-59.045
	C235.878,203.895,241.68,198.092,248.836,198.092z"/>
<path style="fill:#EDC472;" d="M256.904,198.092h-0.903v84.964h0.903c7.158,0,12.959-5.801,12.959-12.959v-59.045
	C269.865,203.895,264.062,198.092,256.904,198.092z"/>
<path style="fill:#FFEBB4;" d="M267.289,226.93v-14.751c0-6.073-4.923-10.995-10.995-10.995h-6.846
	c-6.073,0-10.995,4.923-10.995,10.995v14.751H267.289z"/>
<path style="fill:#FFDC86;" d="M267.289,212.178c0-6.073-4.923-10.995-10.995-10.995h-0.293v25.747h11.288V212.178z"/>
<path style="fill:#FCD37A;" d="M212.791,203.242h8.068c7.158,0,12.959,5.803,12.959,12.959v53.896
	c0,7.158-5.803,12.959-12.959,12.959h-8.068c-7.158,0-12.959-5.803-12.959-12.959V216.2
	C199.833,209.044,205.635,203.242,212.791,203.242z"/>
<path style="fill:#FFEBB4;" d="M231.244,232.079v-14.751c0-6.073-4.923-10.995-10.995-10.995h-6.846
	c-6.073,0-10.995,4.923-10.995,10.995v14.751H231.244z"/>
<path style="fill:#FCD37A;" d="M176.746,207.988h8.068c7.158,0,12.959,5.803,12.959,12.959v42.053
	c0,7.158-5.803,12.959-12.959,12.959h-8.068c-7.158,0-12.959-5.803-12.959-12.959v-42.053
	C163.787,213.788,169.59,207.988,176.746,207.988z"/>
<path style="fill:#FFEBB4;" d="M195.199,236.823v-14.751c0-6.073-4.923-10.995-10.995-10.995h-6.846
	c-6.073,0-10.995,4.923-10.995,10.995v14.751H195.199z"/>
<rect x="185.131" y="72.68" style="fill:#FFFFFF;" width="140.257" height="46.752"/>
<rect x="256.001" y="72.68" style="fill:#D0D1D3;" width="69.387" height="46.752"/>
<path style="fill:#005E8B;" d="M325.386,9.523C303.319,3.324,280.049,0,256.001,0c-24.588,0-48.361,3.475-70.868,9.945v86.107
	h140.253V9.523z"/>
<path style="fill:#00447D;" d="M325.386,9.523C303.32,3.324,280.049,0,256.001,0v96.053h69.384V9.523H325.386z"/>
<path style="fill:#00E4ED;" d="M331.853,310.098c0-13.171-33.959-23.847-75.852-23.847v25.929l0,0v74.926
	c0,4.598,3.727,8.325,8.325,8.325h16.651c4.598,0,8.325-3.727,8.325-8.325v-16.65c0-4.598,3.727-8.325,8.325-8.325
	c4.598,0,8.325,3.727,8.325,8.325c0,4.598,3.727,8.325,8.325,8.325s8.325-3.727,8.325-8.325v-48.938
	C328.498,318.126,331.853,314.235,331.853,310.098z"/>
</svg>